<svg id="mermaidChart0" width="100%" xmlns="http://www.w3.org/2000/svg" height="100%" style="max-width:1850px;" viewBox="-50 -10 1850 1091"><style>
  .mermaid .label{color:#333}.node circle,.node ellipse,.node polygon,.node rect{fill:#ececff;stroke:#ccf;stroke-width:1px}.node.clickable{cursor:pointer}.arrowheadPath{fill:#333}.edgePath .path{stroke:#333}.edgeLabel{background-color:#e8e8e8}.cluster rect{fill:#ffffde!important;rx:4!important;stroke:#aa3!important;stroke-width:1px!important}.cluster text{fill:#333}.actor{stroke:#ccf;fill:#ececff}text.actor{fill:#000;stroke:none}.actor-line{stroke:grey}.messageLine0{marker-end:"url(#arrowhead)"}.messageLine0,.messageLine1{stroke-width:1.5;stroke-dasharray:"2 2";stroke:#333}#arrowhead{fill:#333}#crosshead path{fill:#333!important;stroke:#333!important}.messageText{fill:#333;stroke:none}.labelBox{stroke:#ccf;fill:#ececff}.labelText,.loopText{fill:#000;stroke:none}.loopLine{stroke-width:2;stroke-dasharray:"2 2";marker-end:"url(#arrowhead)";stroke:#ccf}.note{stroke:#aa3;fill:#fff5ad}.noteText{fill:#000;stroke:none;font-family:trebuchet ms,verdana,arial;font-size:14px}.section{stroke:none;opacity:.2}.section0{fill:rgba(102,102,255,.49)}.section2{fill:#fff400}.section1,.section3{fill:#fff;opacity:.2}.sectionTitle0,.sectionTitle1,.sectionTitle2,.sectionTitle3{fill:#333}.sectionTitle{text-anchor:start;font-size:11px;text-height:14px}.grid .tick{stroke:#d3d3d3;opacity:.3;shape-rendering:crispEdges}.grid path{stroke-width:0}.today{fill:none;stroke:red;stroke-width:2px}.task{stroke-width:2}.taskText{text-anchor:middle;font-size:11px}.taskTextOutsideRight{fill:#000;text-anchor:start;font-size:11px}.taskTextOutsideLeft{fill:#000;text-anchor:end;font-size:11px}.taskText0,.taskText1,.taskText2,.taskText3{fill:#fff}.task0,.task1,.task2,.task3{fill:#8a90dd;stroke:#534fbc}.taskTextOutside0,.taskTextOutside1,.taskTextOutside2,.taskTextOutside3{fill:#000}.active0,.active1,.active2,.active3{fill:#bfc7ff;stroke:#534fbc}.activeText0,.activeText1,.activeText2,.activeText3{fill:#000!important}.done0,.done1,.done2,.done3{stroke:grey;fill:#d3d3d3;stroke-width:2}.doneText0,.doneText1,.doneText2,.doneText3{fill:#000!important}.crit0,.crit1,.crit2,.crit3{stroke:#f88;fill:red;stroke-width:2}.activeCrit0,.activeCrit1,.activeCrit2,.activeCrit3{stroke:#f88;fill:#bfc7ff;stroke-width:2}.doneCrit0,.doneCrit1,.doneCrit2,.doneCrit3{stroke:#f88;fill:#d3d3d3;stroke-width:2;cursor:pointer;shape-rendering:crispEdges}.activeCritText0,.activeCritText1,.activeCritText2,.activeCritText3,.doneCritText0,.doneCritText1,.doneCritText2,.doneCritText3{fill:#000!important}.titleText{text-anchor:middle;font-size:18px;fill:#000}g.classGroup text{fill:#9370db;stroke:none;font-family:trebuchet ms,verdana,arial;font-size:10px}g.classGroup rect{fill:#ececff;stroke:#9370db}g.classGroup line{stroke:#9370db;stroke-width:1}svg .classLabel .box{stroke:none;stroke-width:0;fill:#ececff;opacity:.5}svg .classLabel .label{fill:#9370db;font-size:10px}.relation{stroke:#9370db;stroke-width:1;fill:none}#compositionEnd,#compositionStart,.composition{fill:#9370db;stroke:#9370db;stroke-width:1}#aggregationEnd,#aggregationStart,.aggregation{fill:#ececff;stroke:#9370db;stroke-width:1}#dependencyEnd,#dependencyStart,#extensionEnd,#extensionStart{fill:#9370db;stroke:#9370db;stroke-width:1}.node text{font-size:14px}.node text,div.mermaidTooltip{font-family:trebuchet ms,verdana,arial}div.mermaidTooltip{position:absolute;text-align:center;max-width:200px;padding:2px;font-size:12px;background:#ffffde;border:1px solid #aa3;border-radius:2px;pointer-events:none;z-index:100}
svg {
  color: rgb(0, 0, 0);
  font: normal normal 400 normal 16px / normal Menlo, Monaco, "Courier New", monospace;
}
  </style><g></g><g><line id="actor0" x1="75" y1="5" x2="75" y2="1080" class="actor-line" stroke-width="0.5px" stroke="#999"></line><rect x="0" y="0" fill="#eaeaea" stroke="#666" width="150" height="65" rx="3" ry="3" class="actor"></rect><text x="75" y="23" dominant-baseline="central" alignment-baseline="central" class="actor" style="text-anchor: middle;"><tspan x="75">User</tspan><tspan dy="19" x="75">(Web/Admin)</tspan></text></g><g><line id="actor1" x1="275" y1="5" x2="275" y2="1080" class="actor-line" stroke-width="0.5px" stroke="#999"></line><rect x="200" y="0" fill="#eaeaea" stroke="#666" width="150" height="65" rx="3" ry="3" class="actor"></rect><text x="275" y="32.5" dominant-baseline="central" alignment-baseline="central" class="actor" style="text-anchor: middle;"><tspan x="275" dy="0">Frontend</tspan></text></g><g><line id="actor2" x1="475" y1="5" x2="475" y2="1080" class="actor-line" stroke-width="0.5px" stroke="#999"></line><rect x="400" y="0" fill="#eaeaea" stroke="#666" width="150" height="65" rx="3" ry="3" class="actor"></rect><text x="475" y="23" dominant-baseline="central" alignment-baseline="central" class="actor" style="text-anchor: middle;"><tspan x="475">Backend</tspan><tspan dy="19" x="475">(NestJS)</tspan></text></g><g><line id="actor3" x1="675" y1="5" x2="675" y2="1080" class="actor-line" stroke-width="0.5px" stroke="#999"></line><rect x="600" y="0" fill="#eaeaea" stroke="#666" width="150" height="65" rx="3" ry="3" class="actor"></rect><text x="675" y="32.5" dominant-baseline="central" alignment-baseline="central" class="actor" style="text-anchor: middle;"><tspan x="675" dy="0">NeMo Guardrails</tspan></text></g><g><line id="actor4" x1="875" y1="5" x2="875" y2="1080" class="actor-line" stroke-width="0.5px" stroke="#999"></line><rect x="800" y="0" fill="#eaeaea" stroke="#666" width="150" height="65" rx="3" ry="3" class="actor"></rect><text x="875" y="32.5" dominant-baseline="central" alignment-baseline="central" class="actor" style="text-anchor: middle;"><tspan x="875" dy="0">LangChain Agent</tspan></text></g><g><line id="actor5" x1="1075" y1="5" x2="1075" y2="1080" class="actor-line" stroke-width="0.5px" stroke="#999"></line><rect x="1000" y="0" fill="#eaeaea" stroke="#666" width="150" height="65" rx="3" ry="3" class="actor"></rect><text x="1075" y="23" dominant-baseline="central" alignment-baseline="central" class="actor" style="text-anchor: middle;"><tspan x="1075">LlamaIndex</tspan><tspan dy="19" x="1075">(Docs)</tspan></text></g><g><line id="actor6" x1="1275" y1="5" x2="1275" y2="1080" class="actor-line" stroke-width="0.5px" stroke="#999"></line><rect x="1200" y="0" fill="#eaeaea" stroke="#666" width="150" height="65" rx="3" ry="3" class="actor"></rect><text x="1275" y="23" dominant-baseline="central" alignment-baseline="central" class="actor" style="text-anchor: middle;"><tspan x="1275">Backend API</tspan><tspan dy="19" x="1275">(Swagger)</tspan></text></g><g><line id="actor7" x1="1475" y1="5" x2="1475" y2="1080" class="actor-line" stroke-width="0.5px" stroke="#999"></line><rect x="1400" y="0" fill="#eaeaea" stroke="#666" width="150" height="65" rx="3" ry="3" class="actor"></rect><text x="1475" y="32.5" dominant-baseline="central" alignment-baseline="central" class="actor" style="text-anchor: middle;"><tspan x="1475" dy="0">Cache</tspan></text></g><g><line id="actor8" x1="1675" y1="5" x2="1675" y2="1080" class="actor-line" stroke-width="0.5px" stroke="#999"></line><rect x="1600" y="0" fill="#eaeaea" stroke="#666" width="150" height="65" rx="3" ry="3" class="actor"></rect><text x="1675" y="23" dominant-baseline="central" alignment-baseline="central" class="actor" style="text-anchor: middle;"><tspan x="1675">LLM External</tspan><tspan dy="19" x="1675">(Hugging</tspan></text></g><defs><marker id="arrowhead" refX="5" refY="2" markerWidth="6" markerHeight="4" orient="auto"><path d="M 0,0 V 4 L6,2 Z"></path></marker></defs><defs><marker id="crosshead" markerWidth="15" markerHeight="8" orient="auto" refX="16" refY="4"><path fill="black" stroke="#000000" stroke-width="1px" d="M 9,2 V 6 L16,4 Z" style="stroke-dasharray: 0, 0;"></path><path fill="none" stroke="#000000" stroke-width="1px" d="M 0,1 L 6,7 M 6,1 L 0,7" style="stroke-dasharray: 0, 0;"></path></marker></defs><g><text x="175" y="93" class="messageText" style="text-anchor: middle;">Enter query</text><line x1="75" y1="100" x2="275" y2="100" class="messageLine0" stroke-width="2" stroke="black" marker-end="url(#arrowhead)" style="fill: none;"></line></g><g><text x="375" y="128" class="messageText" style="text-anchor: middle;">POST /ai-query (query, JWT token)</text><line x1="275" y1="135" x2="475" y2="135" class="messageLine0" stroke-width="2" stroke="black" marker-end="url(#arrowhead)" style="fill: none;"></line></g><g><text x="575" y="163" class="messageText" style="text-anchor: middle;">Validate prompt (block dangerous keywords)</text><line x1="475" y1="170" x2="675" y2="170" class="messageLine0" stroke-width="2" stroke="black" marker-end="url(#arrowhead)" style="fill: none;"></line></g><g><text x="575" y="198" class="messageText" style="text-anchor: middle;">Prompt safe</text><line x1="675" y1="205" x2="475" y2="205" class="messageLine1" stroke-width="2" stroke="black" marker-end="url(#arrowhead)" style="stroke-dasharray: 3, 3; fill: none;"></line></g><g><text x="475" y="233" class="messageText" style="text-anchor: middle;">Verify JWT token</text><path d="M 475,240 C 535,230 535,270 475,260" class="messageLine0" stroke-width="2" stroke="black" marker-end="url(#arrowhead)" style="fill: none;"></path></g><g><text x="375" y="323" class="messageText" style="text-anchor: middle;">Error: Invalid token</text><line x1="475" y1="330" x2="275" y2="330" class="messageLine1" stroke-width="2" stroke="black" marker-end="url(#arrowhead)" style="stroke-dasharray: 3, 3; fill: none;"></line></g><g><text x="675" y="378" class="messageText" style="text-anchor: middle;">Forward query (with user info)</text><line x1="475" y1="385" x2="875" y2="385" class="messageLine0" stroke-width="2" stroke="black" marker-end="url(#arrowhead)" style="fill: none;"></line></g><g><text x="775" y="413" class="messageText" style="text-anchor: middle;">(Optional) Re-check prompt</text><line x1="875" y1="420" x2="675" y2="420" class="messageLine0" stroke-width="2" stroke="black" marker-end="url(#arrowhead)" style="fill: none;"></line></g><g><text x="775" y="448" class="messageText" style="text-anchor: middle;">Prompt safe</text><line x1="675" y1="455" x2="875" y2="455" class="messageLine1" stroke-width="2" stroke="black" marker-end="url(#arrowhead)" style="stroke-dasharray: 3, 3; fill: none;"></line></g><g><text x="975" y="508" class="messageText" style="text-anchor: middle;">Retrieve docs via LlamaIndex</text><line x1="875" y1="515" x2="1075" y2="515" class="messageLine0" stroke-width="2" stroke="black" marker-end="url(#arrowhead)" style="fill: none;"></line></g><g><text x="975" y="543" class="messageText" style="text-anchor: middle;">Docs data</text><line x1="1075" y1="550" x2="875" y2="550" class="messageLine1" stroke-width="2" stroke="black" marker-end="url(#arrowhead)" style="stroke-dasharray: 3, 3; fill: none;"></line></g><g><text x="1175" y="598" class="messageText" style="text-anchor: middle;">Check cache for API result</text><line x1="875" y1="605" x2="1475" y2="605" class="messageLine0" stroke-width="2" stroke="black" marker-end="url(#arrowhead)" style="fill: none;"></line></g><g><text x="1175" y="658" class="messageText" style="text-anchor: middle;">Cached data</text><line x1="1475" y1="665" x2="875" y2="665" class="messageLine1" stroke-width="2" stroke="black" marker-end="url(#arrowhead)" style="stroke-dasharray: 3, 3; fill: none;"></line></g><g><text x="1075" y="713" class="messageText" style="text-anchor: middle;">Call API via Swagger (with JWT)</text><line x1="875" y1="720" x2="1275" y2="720" class="messageLine0" stroke-width="2" stroke="black" marker-end="url(#arrowhead)" style="fill: none;"></line></g><g><text x="1075" y="748" class="messageText" style="text-anchor: middle;">API response</text><line x1="1275" y1="755" x2="875" y2="755" class="messageLine1" stroke-width="2" stroke="black" marker-end="url(#arrowhead)" style="stroke-dasharray: 3, 3; fill: none;"></line></g><g><text x="1175" y="783" class="messageText" style="text-anchor: middle;">Store result</text><line x1="875" y1="790" x2="1475" y2="790" class="messageLine0" stroke-width="2" stroke="black" marker-end="url(#arrowhead)" style="fill: none;"></line></g><g><line x1="865" y1="615" x2="1485" y2="615" class="loopLine"></line><line x1="1485" y1="615" x2="1485" y2="800" class="loopLine"></line><line x1="865" y1="800" x2="1485" y2="800" class="loopLine"></line><line x1="865" y1="615" x2="865" y2="800" class="loopLine"></line><line x1="865" y1="675" x2="1485" y2="675" class="loopLine" style="stroke-dasharray: 3, 3;"></line><polygon points="865,615 915,615 915,628 906.6,635 865,635" class="labelBox"></polygon><text x="872.5" y="630" fill="black" class="labelText"><tspan x="872.5" fill="black">alt</tspan></text><text x="1175" y="630" fill="black" class="loopText" style="text-anchor: middle;"><tspan x="1175" fill="black">[ Cache hit ]</tspan></text><text x="1175" y="690" fill="black" class="loopText" style="text-anchor: middle;"><tspan x="1175" fill="black">[ Cache miss ]</tspan></text></g><g><line x1="855" y1="465" x2="1495" y2="465" class="loopLine"></line><line x1="1495" y1="465" x2="1495" y2="810" class="loopLine"></line><line x1="855" y1="810" x2="1495" y2="810" class="loopLine"></line><line x1="855" y1="465" x2="855" y2="810" class="loopLine"></line><line x1="855" y1="560" x2="1495" y2="560" class="loopLine" style="stroke-dasharray: 3, 3;"></line><polygon points="855,465 905,465 905,478 896.6,485 855,485" class="labelBox"></polygon><text x="862.5" y="480" fill="black" class="labelText"><tspan x="862.5" fill="black">alt</tspan></text><text x="1175" y="480" fill="black" class="loopText" style="text-anchor: middle;"><tspan x="1175" fill="black">[ Query needs static data ]</tspan></text><text x="1175" y="575" fill="black" class="loopText" style="text-anchor: middle;"><tspan x="1175" fill="black">[ Query needs dynamic data ]</tspan></text></g><g><text x="1275" y="838" class="messageText" style="text-anchor: middle;">Generate answer (combine docs/API data)</text><line x1="875" y1="845" x2="1675" y2="845" class="messageLine0" stroke-width="2" stroke="black" marker-end="url(#arrowhead)" style="fill: none;"></line></g><g><text x="1275" y="873" class="messageText" style="text-anchor: middle;">LLM response</text><line x1="1675" y1="880" x2="875" y2="880" class="messageLine1" stroke-width="2" stroke="black" marker-end="url(#arrowhead)" style="stroke-dasharray: 3, 3; fill: none;"></line></g><g><text x="675" y="908" class="messageText" style="text-anchor: middle;">Return answer</text><line x1="875" y1="915" x2="475" y2="915" class="messageLine1" stroke-width="2" stroke="black" marker-end="url(#arrowhead)" style="stroke-dasharray: 3, 3; fill: none;"></line></g><g><text x="375" y="943" class="messageText" style="text-anchor: middle;">Return answer</text><line x1="475" y1="950" x2="275" y2="950" class="messageLine1" stroke-width="2" stroke="black" marker-end="url(#arrowhead)" style="stroke-dasharray: 3, 3; fill: none;"></line></g><g><text x="175" y="978" class="messageText" style="text-anchor: middle;">Show answer</text><line x1="275" y1="985" x2="75" y2="985" class="messageLine1" stroke-width="2" stroke="black" marker-end="url(#arrowhead)" style="stroke-dasharray: 3, 3; fill: none;"></line></g><g><line x1="65" y1="280" x2="1685" y2="280" class="loopLine"></line><line x1="1685" y1="280" x2="1685" y2="995" class="loopLine"></line><line x1="65" y1="995" x2="1685" y2="995" class="loopLine"></line><line x1="65" y1="280" x2="65" y2="995" class="loopLine"></line><line x1="65" y1="340" x2="1685" y2="340" class="loopLine" style="stroke-dasharray: 3, 3;"></line><polygon points="65,280 115,280 115,293 106.6,300 65,300" class="labelBox"></polygon><text x="72.5" y="295" fill="black" class="labelText"><tspan x="72.5" fill="black">alt</tspan></text><text x="875" y="295" fill="black" class="loopText" style="text-anchor: middle;"><tspan x="875" fill="black">[ Token invalid ]</tspan></text><text x="875" y="355" fill="black" class="loopText" style="text-anchor: middle;"><tspan x="875" fill="black">[ Token valid ]</tspan></text></g><g><rect x="0" y="1015" fill="#eaeaea" stroke="#666" width="150" height="65" rx="3" ry="3" class="actor"></rect><text x="75" y="1038" dominant-baseline="central" alignment-baseline="central" class="actor" style="text-anchor: middle;"><tspan x="75">User</tspan><tspan dy="19" x="75">(Web/Admin)</tspan></text></g><g><rect x="200" y="1015" fill="#eaeaea" stroke="#666" width="150" height="65" rx="3" ry="3" class="actor"></rect><text x="275" y="1047.5" dominant-baseline="central" alignment-baseline="central" class="actor" style="text-anchor: middle;"><tspan x="275" dy="0">Frontend</tspan></text></g><g><rect x="400" y="1015" fill="#eaeaea" stroke="#666" width="150" height="65" rx="3" ry="3" class="actor"></rect><text x="475" y="1038" dominant-baseline="central" alignment-baseline="central" class="actor" style="text-anchor: middle;"><tspan x="475">Backend</tspan><tspan dy="19" x="475">(NestJS)</tspan></text></g><g><rect x="600" y="1015" fill="#eaeaea" stroke="#666" width="150" height="65" rx="3" ry="3" class="actor"></rect><text x="675" y="1047.5" dominant-baseline="central" alignment-baseline="central" class="actor" style="text-anchor: middle;"><tspan x="675" dy="0">NeMo Guardrails</tspan></text></g><g><rect x="800" y="1015" fill="#eaeaea" stroke="#666" width="150" height="65" rx="3" ry="3" class="actor"></rect><text x="875" y="1047.5" dominant-baseline="central" alignment-baseline="central" class="actor" style="text-anchor: middle;"><tspan x="875" dy="0">LangChain Agent</tspan></text></g><g><rect x="1000" y="1015" fill="#eaeaea" stroke="#666" width="150" height="65" rx="3" ry="3" class="actor"></rect><text x="1075" y="1038" dominant-baseline="central" alignment-baseline="central" class="actor" style="text-anchor: middle;"><tspan x="1075">LlamaIndex</tspan><tspan dy="19" x="1075">(Docs)</tspan></text></g><g><rect x="1200" y="1015" fill="#eaeaea" stroke="#666" width="150" height="65" rx="3" ry="3" class="actor"></rect><text x="1275" y="1038" dominant-baseline="central" alignment-baseline="central" class="actor" style="text-anchor: middle;"><tspan x="1275">Backend API</tspan><tspan dy="19" x="1275">(Swagger)</tspan></text></g><g><rect x="1400" y="1015" fill="#eaeaea" stroke="#666" width="150" height="65" rx="3" ry="3" class="actor"></rect><text x="1475" y="1047.5" dominant-baseline="central" alignment-baseline="central" class="actor" style="text-anchor: middle;"><tspan x="1475" dy="0">Cache</tspan></text></g><g><rect x="1600" y="1015" fill="#eaeaea" stroke="#666" width="150" height="65" rx="3" ry="3" class="actor"></rect><text x="1675" y="1038" dominant-baseline="central" alignment-baseline="central" class="actor" style="text-anchor: middle;"><tspan x="1675">LLM External</tspan><tspan dy="19" x="1675">(Hugging</tspan></text></g></svg>